<?xml version="1.0" encoding="us-ascii" standalone="no"?><svg xmlns="http://www.w3.org/2000/svg" xmlns:xlink="http://www.w3.org/1999/xlink" contentStyleType="text/css" height="726px" preserveAspectRatio="none" style="width:379px;height:726px;background:#FFFFFF;" version="1.1" viewBox="0 0 379 726" width="379px" zoomAndPan="magnify"><defs/><g><!--cluster Knowledge Curation Process--><g id="cluster_Knowledge Curation Process"><path d="M8.5,6 L239.5,6 A3.75,3.75 0 0 1 242,8.5 L249,28.2969 L325.5,28.2969 A2.5,2.5 0 0 1 328,30.7969 L328,717.28 A2.5,2.5 0 0 1 325.5,719.78 L8.5,719.78 A2.5,2.5 0 0 1 6,717.28 L6,8.5 A2.5,2.5 0 0 1 8.5,6 " fill="none" style="stroke:#000000;stroke-width:1.5;"/><line style="stroke:#000000;stroke-width:1.5;" x1="6" x2="249" y1="28.2969" y2="28.2969"/><text fill="#000000" font-family="sans-serif" font-size="14" font-weight="bold" lengthAdjust="spacing" textLength="230" x="10" y="20.9951">Knowledge Curation Process</text></g><!--entity Data Acquisition--><g id="elem_Data Acquisition"><rect fill="#F1F1F1" height="46.2969" rx="2.5" ry="2.5" style="stroke:#181818;stroke-width:0.5;" width="151" x="57.5" y="41"/><rect fill="#F1F1F1" height="10" style="stroke:#181818;stroke-width:0.5;" width="15" x="188.5" y="46"/><rect fill="#F1F1F1" height="2" style="stroke:#181818;stroke-width:0.5;" width="4" x="186.5" y="48"/><rect fill="#F1F1F1" height="2" style="stroke:#181818;stroke-width:0.5;" width="4" x="186.5" y="52"/><text fill="#000000" font-family="sans-serif" font-size="14" lengthAdjust="spacing" textLength="111" x="72.5" y="73.9951">Data Acquisition</text></g><!--entity Data Standardization--><g id="elem_Data Standardization"><rect fill="#F1F1F1" height="46.2969" rx="2.5" ry="2.5" style="stroke:#181818;stroke-width:0.5;" width="183" x="41.5" y="164.3"/><rect fill="#F1F1F1" height="10" style="stroke:#181818;stroke-width:0.5;" width="15" x="204.5" y="169.3"/><rect fill="#F1F1F1" height="2" style="stroke:#181818;stroke-width:0.5;" width="4" x="202.5" y="171.3"/><rect fill="#F1F1F1" height="2" style="stroke:#181818;stroke-width:0.5;" width="4" x="202.5" y="175.3"/><text fill="#000000" font-family="sans-serif" font-size="14" lengthAdjust="spacing" textLength="143" x="56.5" y="197.2951">Data Standardization</text></g><!--entity Text Chunking--><g id="elem_Text Chunking"><rect fill="#F1F1F1" height="46.2969" rx="2.5" ry="2.5" style="stroke:#181818;stroke-width:0.5;" width="140" x="63" y="287.59"/><rect fill="#F1F1F1" height="10" style="stroke:#181818;stroke-width:0.5;" width="15" x="183" y="292.59"/><rect fill="#F1F1F1" height="2" style="stroke:#181818;stroke-width:0.5;" width="4" x="181" y="294.59"/><rect fill="#F1F1F1" height="2" style="stroke:#181818;stroke-width:0.5;" width="4" x="181" y="298.59"/><text fill="#000000" font-family="sans-serif" font-size="14" lengthAdjust="spacing" textLength="100" x="78" y="320.5851">Text Chunking</text></g><!--entity Vectorization (Embedding)--><g id="elem_Vectorization (Embedding)"><rect fill="#F1F1F1" height="46.2969" rx="2.5" ry="2.5" style="stroke:#181818;stroke-width:0.5;" width="223" x="21.5" y="410.89"/><rect fill="#F1F1F1" height="10" style="stroke:#181818;stroke-width:0.5;" width="15" x="224.5" y="415.89"/><rect fill="#F1F1F1" height="2" style="stroke:#181818;stroke-width:0.5;" width="4" x="222.5" y="417.89"/><rect fill="#F1F1F1" height="2" style="stroke:#181818;stroke-width:0.5;" width="4" x="222.5" y="421.89"/><text fill="#000000" font-family="sans-serif" font-size="14" lengthAdjust="spacing" textLength="183" x="36.5" y="443.8851">Vectorization (Embedding)</text></g><!--entity Data Ingestion into Knowledge Base--><g id="elem_Data Ingestion into Knowledge Base"><rect fill="#F1F1F1" height="46.2969" rx="2.5" ry="2.5" style="stroke:#181818;stroke-width:0.5;" width="290" x="22" y="534.19"/><rect fill="#F1F1F1" height="10" style="stroke:#181818;stroke-width:0.5;" width="15" x="292" y="539.19"/><rect fill="#F1F1F1" height="2" style="stroke:#181818;stroke-width:0.5;" width="4" x="290" y="541.19"/><rect fill="#F1F1F1" height="2" style="stroke:#181818;stroke-width:0.5;" width="4" x="290" y="545.19"/><text fill="#000000" font-family="sans-serif" font-size="14" lengthAdjust="spacing" textLength="250" x="37" y="567.1851">Data Ingestion into Knowledge Base</text></g><!--entity Knowledge Base--><g id="elem_Knowledge Base"><rect fill="#F1F1F1" height="46.2969" rx="2.5" ry="2.5" style="stroke:#181818;stroke-width:0.5;" width="156" x="89" y="657.48"/><rect fill="#F1F1F1" height="10" style="stroke:#181818;stroke-width:0.5;" width="15" x="225" y="662.48"/><rect fill="#F1F1F1" height="2" style="stroke:#181818;stroke-width:0.5;" width="4" x="223" y="664.48"/><rect fill="#F1F1F1" height="2" style="stroke:#181818;stroke-width:0.5;" width="4" x="223" y="668.48"/><text fill="#000000" font-family="sans-serif" font-size="14" lengthAdjust="spacing" textLength="116" x="104" y="690.4751">Knowledge Base</text></g><!--link Data Acquisition to Data Standardization--><g id="link_Data Acquisition_Data Standardization"><path d="M133,87.68 C133,109.46 133,136.29 133,158.03 " fill="none" id="Data Acquisition-to-Data Standardization" style="stroke:#181818;stroke-width:1.0;"/><polygon fill="#181818" points="133,164.03,137,155.03,133,159.03,129,155.03,133,164.03" style="stroke:#181818;stroke-width:1.0;"/><text fill="#000000" font-family="sans-serif" font-size="13" lengthAdjust="spacing" textLength="145" x="134" y="130.3669">Filter and cleanse data</text></g><!--link Data Standardization to Text Chunking--><g id="link_Data Standardization_Text Chunking"><path d="M133,210.97 C133,232.76 133,259.58 133,281.33 " fill="none" id="Data Standardization-to-Text Chunking" style="stroke:#181818;stroke-width:1.0;"/><polygon fill="#181818" points="133,287.33,137,278.33,133,282.33,129,278.33,133,287.33" style="stroke:#181818;stroke-width:1.0;"/><text fill="#000000" font-family="sans-serif" font-size="13" lengthAdjust="spacing" textLength="123" x="134" y="253.6569">Ensure consistency</text></g><!--link Text Chunking to Vectorization (Embedding)--><g id="link_Text Chunking_Vectorization (Embedding)"><path d="M133,334.27 C133,356.06 133,382.88 133,404.63 " fill="none" id="Text Chunking-to-Vectorization (Embedding)" style="stroke:#181818;stroke-width:1.0;"/><polygon fill="#181818" points="133,410.63,137,401.63,133,405.63,129,401.63,133,410.63" style="stroke:#181818;stroke-width:1.0;"/><text fill="#000000" font-family="sans-serif" font-size="13" lengthAdjust="spacing" textLength="147" x="134" y="376.9569">Convert text to vectors</text></g><!--link Vectorization (Embedding) to Data Ingestion into Knowledge Base--><g id="link_Vectorization (Embedding)_Data Ingestion into Knowledge Base"><path d="M139.32,457.57 C145.42,479.36 152.9991,506.4031 159.0991,528.1431 " fill="none" id="Vectorization (Embedding)-to-Data Ingestion into Knowledge Base" style="stroke:#181818;stroke-width:1.0;"/><polygon fill="#181818" points="160.72,533.92,162.1399,524.174,159.3692,529.1059,154.4373,526.3353,160.72,533.92" style="stroke:#181818;stroke-width:1.0;"/><text fill="#000000" font-family="sans-serif" font-size="13" lengthAdjust="spacing" textLength="218" x="153" y="500.2569">Save embeddings and scalar data</text></g><!--link Data Ingestion into Knowledge Base to Knowledge Base--><g id="link_Data Ingestion into Knowledge Base_Knowledge Base"><path d="M167,580.87 C167,602.65 167,629.48 167,651.22 " fill="none" id="Data Ingestion into Knowledge Base-to-Knowledge Base" style="stroke:#181818;stroke-width:1.0;"/><polygon fill="#181818" points="167,657.22,171,648.22,167,652.22,163,648.22,167,657.22" style="stroke:#181818;stroke-width:1.0;"/><text fill="#000000" font-family="sans-serif" font-size="13" lengthAdjust="spacing" textLength="82" x="168" y="623.5469">Keep current</text></g><!--SRC=[VP2xJWD134NxV8ML2ehy00LIM8A4qY0bea4fpCpLCihY2RPtUOb_PtOtF0A2RcJVSqRNEmvRha7JfUJ71h4ygrRPKnQwqXnWDgNN2T7DEJlJF3oqoLA_tj1iTheVhvmbiiRqCf2R4xf8ZKEfZ2aqO35GBCbFqKzYbAtnv5JTjR9DKXVBGgnLKCXYoHmIddl1OMeahn4ywzv6HulxMyHOriV5KcNfe4xUSvwf6xBMg_x6lhMxb1es198K_EjIPsme_XLt87oWDfIsm0thOUV_FUE7l-HBO4UXLONuvEqT]--></g></svg>