<?xml version="1.0" encoding="us-ascii" standalone="no"?><svg xmlns="http://www.w3.org/2000/svg" xmlns:xlink="http://www.w3.org/1999/xlink" contentStyleType="text/css" height="356px" preserveAspectRatio="none" style="width:877px;height:356px;background:#FFFFFF;" version="1.1" viewBox="0 0 877 356" width="877px" zoomAndPan="magnify"><defs/><g><!--cluster RAG System--><g id="cluster_RAG System"><path d="M8.5,6 L105.5,6 A3.75,3.75 0 0 1 108,8.5 L115,28.2969 L867.5,28.2969 A2.5,2.5 0 0 1 870,30.7969 L870,346.81 A2.5,2.5 0 0 1 867.5,349.31 L8.5,349.31 A2.5,2.5 0 0 1 6,346.81 L6,8.5 A2.5,2.5 0 0 1 8.5,6 " fill="none" style="stroke:#000000;stroke-width:1.5;"/><line style="stroke:#000000;stroke-width:1.5;" x1="6" x2="115" y1="28.2969" y2="28.2969"/><text fill="#000000" font-family="sans-serif" font-size="14" font-weight="bold" lengthAdjust="spacing" textLength="96" x="10" y="20.9951">RAG System</text></g><!--cluster RAG Components--><g id="cluster_RAG Components"><path d="M65.5,112.72 L204.5,112.72 A3.75,3.75 0 0 1 207,115.22 L214,135.0169 L437.5,135.0169 A2.5,2.5 0 0 1 440,137.5169 L440,314.81 A2.5,2.5 0 0 1 437.5,317.31 L65.5,317.31 A2.5,2.5 0 0 1 63,314.81 L63,115.22 A2.5,2.5 0 0 1 65.5,112.72 " fill="none" style="stroke:#000000;stroke-width:1.5;"/><line style="stroke:#000000;stroke-width:1.5;" x1="63" x2="214" y1="135.0169" y2="135.0169"/><text fill="#000000" font-family="sans-serif" font-size="14" font-weight="bold" lengthAdjust="spacing" textLength="138" x="67" y="127.7151">RAG Components</text></g><!--entity User Query--><g id="elem_User Query"><rect fill="#F1F1F1" height="46.2969" rx="2.5" ry="2.5" style="stroke:#181818;stroke-width:0.5;" width="117" x="459.5" y="147.72"/><rect fill="#F1F1F1" height="10" style="stroke:#181818;stroke-width:0.5;" width="15" x="556.5" y="152.72"/><rect fill="#F1F1F1" height="2" style="stroke:#181818;stroke-width:0.5;" width="4" x="554.5" y="154.72"/><rect fill="#F1F1F1" height="2" style="stroke:#181818;stroke-width:0.5;" width="4" x="554.5" y="158.72"/><text fill="#000000" font-family="sans-serif" font-size="14" lengthAdjust="spacing" textLength="77" x="474.5" y="180.7151">User Query</text></g><!--entity Knowledge Base--><g id="elem_Knowledge Base"><rect fill="#F1F1F1" height="46.2969" rx="2.5" ry="2.5" style="stroke:#181818;stroke-width:0.5;" width="156" x="268" y="147.72"/><rect fill="#F1F1F1" height="10" style="stroke:#181818;stroke-width:0.5;" width="15" x="404" y="152.72"/><rect fill="#F1F1F1" height="2" style="stroke:#181818;stroke-width:0.5;" width="4" x="402" y="154.72"/><rect fill="#F1F1F1" height="2" style="stroke:#181818;stroke-width:0.5;" width="4" x="402" y="158.72"/><text fill="#000000" font-family="sans-serif" font-size="14" lengthAdjust="spacing" textLength="116" x="283" y="180.7151">Knowledge Base</text></g><!--entity Data Sources--><g id="elem_Data Sources"><rect fill="#F1F1F1" height="46.2969" rx="2.5" ry="2.5" style="stroke:#181818;stroke-width:0.5;" width="133" x="279.5" y="255.01"/><rect fill="#F1F1F1" height="10" style="stroke:#181818;stroke-width:0.5;" width="15" x="392.5" y="260.01"/><rect fill="#F1F1F1" height="2" style="stroke:#181818;stroke-width:0.5;" width="4" x="390.5" y="262.01"/><rect fill="#F1F1F1" height="2" style="stroke:#181818;stroke-width:0.5;" width="4" x="390.5" y="266.01"/><text fill="#000000" font-family="sans-serif" font-size="14" lengthAdjust="spacing" textLength="93" x="294.5" y="288.0051">Data Sources</text></g><!--entity Language Model--><g id="elem_Language Model"><rect fill="#F1F1F1" height="46.2969" rx="2.5" ry="2.5" style="stroke:#181818;stroke-width:0.5;" width="154" x="79" y="147.72"/><rect fill="#F1F1F1" height="10" style="stroke:#181818;stroke-width:0.5;" width="15" x="213" y="152.72"/><rect fill="#F1F1F1" height="2" style="stroke:#181818;stroke-width:0.5;" width="4" x="211" y="154.72"/><rect fill="#F1F1F1" height="2" style="stroke:#181818;stroke-width:0.5;" width="4" x="211" y="158.72"/><text fill="#000000" font-family="sans-serif" font-size="14" lengthAdjust="spacing" textLength="114" x="94" y="180.7151">Language Model</text></g><!--link User Query to RAG System--><g id="link_User Query_RAG System"><path d="M576.89,161.54 C654.86,148.22 777.08,117.92 728,63.72 C705.9,39.31 444.9489,34.0752 432.4489,33.8352 " fill="none" id="User Query-to-RAG System" style="stroke:#181818;stroke-width:1.0;"/><polygon fill="#181818" points="426.45,33.72,435.3716,37.892,431.4491,33.816,435.5251,29.8935,426.45,33.72" style="stroke:#181818;stroke-width:1.0;"/><text fill="#000000" font-family="sans-serif" font-size="13" lengthAdjust="spacing" textLength="93" x="737" y="76.7869">Submits query</text></g><!--link RAG System to User Query--><g id="link_RAG System_User Query"><path d="M426.62,33.73 C432.75,33.93 482.45,36.37 504,63.72 C522.75,87.51 523.8312,118.0636 521.7512,141.4636 " fill="none" id="RAG System-to-User Query" style="stroke:#181818;stroke-width:1.0;"/><polygon fill="#181818" points="521.22,147.44,526.0011,138.8295,521.6627,142.4596,518.0326,138.1212,521.22,147.44" style="stroke:#181818;stroke-width:1.0;"/><text fill="#000000" font-family="sans-serif" font-size="13" lengthAdjust="spacing" textLength="182" x="513" y="76.7869">Returns generated response</text></g><!--link Knowledge Base to Data Sources--><g id="link_Knowledge Base_Data Sources"><path d="M346,194.45 C346,212.22 346,230.85 346,248.61 " fill="none" id="Knowledge Base-to-Data Sources" style="stroke:#181818;stroke-width:1.0;"/><polygon fill="#181818" points="346,254.61,350,245.61,346,249.61,342,245.61,346,254.61" style="stroke:#181818;stroke-width:1.0;"/></g><!--link Language Model to Knowledge Base--><g id="link_Language Model_Knowledge Base"><path d="M233.19,170.86 C244.65,170.86 250.1,170.86 261.56,170.86 " fill="none" id="Language Model-to-Knowledge Base" style="stroke:#181818;stroke-width:1.0;"/><polygon fill="#181818" points="267.56,170.86,258.56,166.86,262.56,170.86,258.56,174.86,267.56,170.86" style="stroke:#181818;stroke-width:1.0;"/></g><!--link RAG System to Language Model--><g id="link_RAG System_Language Model"><path d="M425.47,33.72 C410.74,33.77 96.24,35.18 70,63.72 C44.64,91.3 78.3295,121.9692 111.6795,143.9392 " fill="none" id="RAG System-to-Language Model" style="stroke:#181818;stroke-width:1.0;"/><polygon fill="#181818" points="116.69,147.24,111.3748,138.9485,112.5146,144.4894,106.9738,145.6292,116.69,147.24" style="stroke:#181818;stroke-width:1.0;"/><text fill="#000000" font-family="sans-serif" font-size="13" lengthAdjust="spacing" textLength="218" x="71" y="76.7869">Uses LLM for response generation</text></g><!--link RAG System to Knowledge Base--><g id="link_RAG System_Knowledge Base"><path d="M425.34,33.77 C416.53,34.53 322.12,43.07 306,63.72 C286.37,88.86 303.8638,119.9952 322.1038,142.9152 " fill="none" id="RAG System-to-Knowledge Base" style="stroke:#181818;stroke-width:1.0;"/><polygon fill="#181818" points="325.84,147.61,323.3656,138.077,322.7265,143.6977,317.1059,143.0586,325.84,147.61" style="stroke:#181818;stroke-width:1.0;"/><text fill="#000000" font-family="sans-serif" font-size="13" lengthAdjust="spacing" textLength="192" x="307" y="76.7869">Retrieves relevant information</text></g><!--SRC=[TT3BRi8m48NXFKynOiyBP87KYzH5mw94NQ4iN798hIRZTCO6eOftxxXH8OhQ_U_FnnxS_iEreENsxecgiqRqI_fQ4ErU5K8l2NAkQRLQq-vMr0LLwQttKUap1vOFK-SXz4DWSDJHCksPmwb3OyMzKvZOX1DdzT55HrL8ieVMOriwRbF6Dg51PwtuzZtcUAPOVibJ9yl6gJEX87kCKbbkw12416hp5DI28Ixwm7ygiziAsYAAnz4eGOUZuqYUJUp_DoQ_-7C-2UlllMYkKnQNRm00]--></g></svg>